<svg width="32px" height="32px" viewBox="0 0 32 32" version="1.1" xmlns="http://www.w3.org/2000/svg" xmlns:xlink="http://www.w3.org/1999/xlink">
    <g id="DOT-CA---Members---Find-A-Curling-Centre" stroke="none" stroke-width="1" fill="none" fill-rule="evenodd">
        <g id="Desktop---DOT-CA---Find-a-Curling-Centre" transform="translate(-1053.000000, -786.000000)" fill="#ED1940">
            <g id="Table-List" transform="translate(235.000000, 732.000000)">
                <g id="Cell-1" transform="translate(1.000000, 41.000000)">
                    <path d="M833,13 C824.163444,13 817,20.163444 817,29 C817,37.836556 824.163444,45 833,45 C841.836556,45 849,37.836556 849,29 C849,20.163444 841.836556,13 833,13 L833,13 Z M847,29 L841.802855,29 C841.578518,24.1222159 839.492182,19.1330668 836,16 C842.176907,17.4121033 846.664559,22.7156918 847,29 L847,29 Z M831,17 L831,29 L826,29 C826.207143,24.2649465 827.971429,19.6431718 831,17 Z M831,31 L831,42 C828.178571,39.401222 826.407143,35.1819416 826,31 L831,31 Z M833,42 L833,31 L839,31 C838.505,35.120474 836.2925,39.4654378 833,42 Z M833,29 L833,17 C836.54,19.5661765 838.7525,24.3529412 839,29 L833,29 Z M829,16 C825.893617,19.1170029 824.120567,24.0172911 823.929078,29 L819,29 C819.312072,22.8340621 823.350869,17.5836262 829,16 L829,16 Z M819.027855,31 L823.825905,31 C824.215877,35.4725944 826.047354,40.0255786 829,43 C823.592804,41.606541 819.595412,36.8096713 819,31 L819.027855,31 Z M836.029255,43 C839.368221,39.823051 841.444487,35.5648179 841.880319,31 L847,31 C846.327089,36.9287998 841.894623,41.7642176 836,43 L836.029255,43 Z" id="Icon/Web"></path>
                </g>
            </g>
        </g>
    </g>
</svg>