
<svg width="20px" height="16px" viewBox="0 0 20 16" version="1.1" xmlns="http://www.w3.org/2000/svg" xmlns:xlink="http://www.w3.org/1999/xlink">
  <g fill="#4C4C4E">
    <path d="M17.953,3.9800923 C17.962,4.1500923 17.966,4.3300923 17.966,4.5100923 C17.9636872,7.58926412 16.7266378,10.5388947 14.5318306,12.6985534 C12.3370234,14.8582121 9.36780793,16.0474857 6.289,16.0000923 C4.06389022,16.0021471 1.88359783,15.37465 -5.86197757e-14,14.1900923 C0.319,14.2200923 0.647,14.2400923 0.978,14.2400923 C2.82248537,14.2429681 4.61594075,13.6345999 6.078,12.5100923 C4.33164387,12.4858521 2.79234797,11.3579717 2.243,9.7000923 C2.49675266,9.75199123 2.75499767,9.77878708 3.014,9.7800923 C3.37915933,9.77973011 3.74277398,9.732682 4.096,9.6400923 C2.1954747,9.27252416 0.81778259,7.61577932 0.803,5.6800923 C0.801166988,5.66347604 0.801166988,5.64670857 0.803,5.6300923 C1.37468069,5.93983919 2.01107606,6.11109736 2.661,6.1300923 C1.52427714,5.39027983 0.838148829,4.12635925 0.837,2.7700923 C0.8353654,2.05586656 1.02677993,1.35447397 1.391,0.740092304 C3.49379682,3.27007494 6.56207582,4.80113056 9.848,4.9600923 C9.78066087,4.65808156 9.74712135,4.34951802 9.748,4.0400923 C9.76615726,1.79296553 11.6008497,-0.0148777876 13.848,9.23038843e-05 C14.9774795,-0.00282027614 16.0590882,0.455978363 16.842,1.2700923 C17.7613552,1.09631135 18.6437055,0.764753334 19.45,0.290092304 C19.1427268,1.23100389 18.5027057,2.02747467 17.65,2.5300923 C18.4622333,2.43223823 19.2558915,2.21664347 20.006,1.8900923 C19.4521022,2.70387969 18.756765,3.41174856 17.953,3.9800923 Z"></path>
  </g>
</svg>
