
<svg width="68px" height="121px" viewBox="0 0 68 121" version="1.1" xmlns="http://www.w3.org/2000/svg" xmlns:xlink="http://www.w3.org/1999/xlink">
  <g id="Icon/Video-Play" fill="#FFFFFF">
    <path d="M13.965,106.691 C13.965,110.016 11.97,111.906 8.68,111.906 L5.845,111.906 L5.845,120.831 L1.505,120.831 L1.505,97.521 L8.68,97.521 C11.97,97.521 13.965,99.411 13.965,102.771 L13.965,106.691 Z M9.765,106.796 L9.765,102.841 C9.765,101.686 9.31,101.091 8.225,101.091 L5.845,101.091 L5.845,108.546 L8.225,108.546 C9.31,108.546 9.765,107.951 9.765,106.796 Z M28.125,120.831 L17.275,120.831 L17.275,97.521 L21.615,97.521 L21.615,116.981 L28.125,116.981 L28.125,120.831 Z M44,120.831 L39.59,120.831 L38.82,116.246 L34.69,116.246 L33.85,120.831 L29.79,120.831 L34.48,97.521 L39.345,97.521 L44,120.831 Z M38.26,112.816 L36.86,103.821 L35.285,112.816 L38.26,112.816 Z M58.825,97.521 L53.54,111.311 L53.54,120.831 L49.2,120.831 L49.2,111.311 L44.055,97.521 L48.605,97.521 L51.615,107.006 L54.485,97.521 L58.825,97.521 Z" id="PLAY" fill-rule="nonzero" opacity="0.9"></path>
    <polyline id="Fill-4" fill-opacity="0.9" points="0 78 68 39.0014903 0 0 0 78"></polyline>
  </g>
</svg>