<?xml version="1.0" encoding="UTF-8"?>
<svg width="17px" height="16px" viewBox="0 0 17 16" version="1.1" xmlns="http://www.w3.org/2000/svg" xmlns:xlink="http://www.w3.org/1999/xlink">
    <g fill="#ffffff">
        <path d="M0.645292714,15.3603843 L4.01285363,15.3603843 L4.01285363,4.99593775 L0.645292714,4.99593775 L0.645292714,15.3603843 Z M2.35130349,0 C1.19878778,0 0.445086705,0.773738505 0.445086705,1.7901384 C0.445086705,2.78556756 1.17722304,3.58163854 2.30710908,3.58163854 L2.32894006,3.58163854 C3.5038192,3.58163854 4.23435815,2.78556756 4.23435815,1.7901384 C4.21199472,0.773738505 3.5038192,0 2.35130349,0 L2.35130349,0 Z M16.1585961,9.41640578 L16.1585961,15.3603843 L12.7899703,15.3603843 L12.7899703,9.81512214 C12.7899703,8.4226107 12.3035655,7.47184649 11.0839595,7.47184649 C10.1532145,7.47184649 9.60025192,8.11213485 9.35611773,8.73199717 C9.26746268,8.95341547 9.24456678,9.26116785 9.24456678,9.57191605 L9.24456678,15.3603843 L5.8756747,15.3603843 C5.8756747,15.3603843 5.92066781,5.96821739 5.8756747,4.99593775 L9.24456678,4.99593775 L9.24456678,6.46470641 C9.23764476,6.47641734 9.22806043,6.48758357 9.22220334,6.49874981 L9.24456678,6.49874981 L9.24456678,6.46470641 C9.69210175,5.75987175 10.4905297,4.75245932 12.2804034,4.75245932 C14.4967797,4.75245932 16.1585961,6.23375595 16.1585961,9.41640578 L16.1585961,9.41640578 Z" id="path-1"></path>
    </g>
</svg>