<?xml version="1.0" encoding="UTF-8"?>
<svg width="18px" height="16px" viewBox="0 0 18 16" version="1.1" xmlns="http://www.w3.org/2000/svg" xmlns:xlink="http://www.w3.org/1999/xlink">
    <g fill="#ffffff">
        <path d="M18.7667073,2.45728656 C18.1098609,2.75520492 17.4034213,2.9570554 16.6624246,3.0471865 C17.4189851,2.58330818 17.9995951,1.84957628 18.2736768,0.974171245 C17.5656544,1.40377816 16.7816594,1.71545905 15.9472798,1.88330798 C15.2790903,1.155243 14.3270587,0.7 13.2729389,0.7 C11.2501685,0.7 9.60963518,2.37821946 9.60963518,4.44745676 C9.60963518,4.74132732 9.64208181,5.02710227 9.70486472,5.30154337 C6.66042116,5.14529814 3.9612836,3.65354751 2.15429647,1.38569796 C1.83906295,1.93916767 1.65836424,2.58330818 1.65836424,3.27008556 C1.65836424,4.56970044 2.30545028,5.71711789 3.28781818,6.38905332 C2.68768741,6.36962387 2.12237743,6.20123523 1.62881934,5.92004779 C1.62829175,5.93596915 1.62829175,5.95189051 1.62829175,5.96754202 C1.62829175,7.78311695 2.89159998,9.29753529 4.56721782,9.64159861 C4.2601619,9.72741205 3.9359594,9.77328716 3.60226031,9.77328716 C3.36563733,9.77328716 3.13640057,9.7498099 2.91270348,9.70636347 C3.37909081,11.1948759 4.73156132,12.278338 6.33489968,12.3085616 C5.08082423,13.3137662 3.5017549,13.9128412 1.78498523,13.9128412 C1.48980004,13.9128412 1.19751657,13.8953007 0.911564155,13.8604896 C2.53204911,14.9239826 4.45800721,15.544376 6.52667773,15.544376 C13.2647613,15.544376 16.9494322,9.83454392 16.9494322,4.88165119 C16.9494322,4.71946918 16.9460029,4.55755703 16.9386167,4.39699414 C17.6548167,3.86862082 18.2757872,3.2088288 18.7667073,2.45728656" id="path-1"></path>
    </g>
</svg>