<?xml version="1.0" encoding="UTF-8"?>
<svg width="17px" height="18px" viewBox="0 0 17 18" version="1.1" xmlns="http://www.w3.org/2000/svg" xmlns:xlink="http://www.w3.org/1999/xlink">
    <g fill="#4C4C4E">
        <path d="M14.5249136,4.6019025 C14.5249136,4.8408525 14.3676827,5.00198464 14.133533,5.00198464 L12.5600922,5.00198464 C12.3259425,5.00198464 12.1687115,4.8408525 12.1687115,4.6019025 L12.1687115,2.99231679 C12.1687115,2.7530775 12.3259425,2.59223464 12.5600922,2.59223464 L14.133533,2.59223464 C14.3676827,2.59223464 14.5249136,2.7530775 14.5249136,2.99231679 L14.5249136,4.6019025 Z M2.34516989,15.4512739 C2.11102018,15.4512739 1.95378922,15.2901418 1.95378922,15.0511918 L1.95378922,8.21681679 L3.60414874,8.21681679 C3.52327094,8.45981679 3.52327094,8.78237036 3.52327094,9.02132036 C3.52327094,11.6758061 5.64560614,13.8460275 8.23935142,13.8460275 C10.8330967,13.8460275 12.9554319,11.6758061 12.9554319,9.02132036 C12.9554319,8.78237036 12.9554319,8.45981679 12.8748369,8.21681679 L14.5249136,8.21681679 L14.5249136,15.0511918 C14.5249136,15.2901418 14.3676827,15.4512739 14.133533,15.4512739 L2.34516989,15.4512739 Z M8.23935142,5.80648821 C9.97030595,5.80648821 11.3822739,7.2506025 11.3822739,9.02132036 C11.3822739,10.7914596 9.97030595,12.2364418 8.23935142,12.2364418 C6.50896248,12.2364418 5.09642893,10.7914596 5.09642893,9.02132036 C5.09642893,7.2506025 6.50896248,5.80648821 8.23935142,5.80648821 L8.23935142,5.80648821 Z M14.5249136,0.982359643 L1.95378922,0.982359643 C1.08675662,0.982359643 0.380631235,1.70441679 0.380631235,2.59223464 L0.380631235,15.4512739 C0.380631235,16.3382239 1.08675662,17.0608596 1.95378922,17.0608596 L14.5249136,17.0608596 C15.392229,17.0608596 16.0980716,16.3382239 16.0980716,15.4512739 L16.0980716,2.59223464 C16.0980716,1.70441679 15.392229,0.982359643 14.5249136,0.982359643 L14.5249136,0.982359643 Z" id="path-1"></path>
    </g>
</svg>