<?xml version="1.0" encoding="UTF-8"?>
<svg width="37px" height="26px" viewBox="0 0 37 26" version="1.1" xmlns="http://www.w3.org/2000/svg" xmlns:xlink="http://www.w3.org/1999/xlink">
    <!-- Generator: Sketch 57.1 (83088) - https://sketch.com -->
    <title>menu copy</title>
    <desc>Created with Sketch.</desc>
    <g id="menu-copy" stroke="none" stroke-width="1" fill="none" fill-rule="evenodd">
        <g fill="#4C4C4E" fill-rule="nonzero" id="Path">
            <path d="M35.5054023,11 L1.49459766,11 C0.669179688,11 0,11.671526 0,12.5 C0,13.328474 0.669179688,14 1.49459766,14 L35.5054023,14 C36.3308926,14 37,13.328474 37,12.5 C37,11.6715985 36.3308926,11 35.5054023,11 Z"></path>
            <path d="M35.5054023,0 L1.49459766,0 C0.669179688,0 0,0.671598491 0,1.5 C0,2.32840151 0.669179688,3 1.49459766,3 L35.5054023,3 C36.3308926,3 37,2.32840151 37,1.5 C37,0.671598491 36.3308926,0 35.5054023,0 Z"></path>
            <path d="M35.5054023,23 L1.49459766,23 C0.669179688,23 0,23.671526 0,24.5 C0,25.328474 0.669179688,26 1.49459766,26 L35.5054023,26 C36.3308926,26 37,25.328474 37,24.5 C37,23.671526 36.3308926,23 35.5054023,23 Z"></path>
        </g>
    </g>
</svg>