<?xml version="1.0" encoding="UTF-8"?>
<svg width="167px" height="79px" viewBox="0 0 167 79" version="1.1" xmlns="http://www.w3.org/2000/svg" xmlns:xlink="http://www.w3.org/1999/xlink">
    <defs>
        <polygon id="path-1" points="0.000277192982 0.307017544 49.8991719 0.307017544 49.8991719 87.3070175 0.000277192982 87.3070175"></polygon>
        <polygon id="path-3" points="0 87.3187982 166.164719 87.3187982 166.164719 9.69298246 0 9.69298246"></polygon>
    </defs>
    <g id="Symbols" stroke="none" stroke-width="1" fill="none" fill-rule="evenodd">
        <g id="Item/Logo-Full" transform="translate(0.000000, -9.000000)">
            <g id="Group-28">
                <g>
                    <path d="M44.9464263,73.7380053 C44.9464263,74.6866982 44.7898123,75.5473825 44.4793561,76.2944175 C44.1910754,76.9998737 43.7489526,77.6304877 43.1772421,78.1668561 C42.5694965,78.7357947 41.7912772,79.2125667 40.8737684,79.5805404 C39.8689439,79.9852421 38.6957246,80.267286 37.3832158,80.4121193 C34.8621456,80.6969351 32.5773825,81.1258912 30.5864439,81.6913649 C28.9413035,82.1619 27.4825754,82.7280667 26.2532246,83.3766982 C25.7508123,83.6386456 25.3197772,83.899207 24.9483386,84.1486807 C24.577593,83.899207 24.1479439,83.6386456 23.6455316,83.3766982 C22.4161807,82.7280667 20.9581456,82.1619 19.3102333,81.6913649 C17.3248386,81.1258912 15.0373035,80.6969351 12.5155404,80.4121193 C11.2037246,80.267286 10.0277333,79.9852421 9.02498772,79.5805404 C8.10678596,79.2125667 7.3313386,78.7357947 6.72012807,78.1668561 C6.14703158,77.6304877 5.71045263,76.9998737 5.41662807,76.2944175 C5.10963684,75.5473825 4.95232982,74.6866982 4.95232982,73.7380053 L4.95232982,43.1185754 L44.9464263,43.1185754 L44.9464263,73.7380053 Z" id="Fill-1" fill="#FEFEFE"></path>
                    <g id="Group-5" transform="translate(0.000000, 0.011781)">
                        <mask id="mask-2" fill="white">
                            <use xlink:href="#path-1"></use>
                        </mask>
                        <g id="Clip-4"></g>
                        <path d="M44.9464263,73.7262246 C44.9464263,74.6749175 44.7898123,75.5356018 44.4793561,76.2826368 C44.1910754,76.988093 43.7489526,77.618707 43.1772421,78.1550754 C42.5694965,78.724014 41.7912772,79.200786 40.8737684,79.5687596 C39.8689439,79.9734614 38.6957246,80.2555053 37.3832158,80.4003386 C34.8621456,80.6851544 32.5773825,81.1141105 30.5864439,81.6795842 C28.9413035,82.1501193 27.4825754,82.716286 26.2532246,83.3649175 C25.7508123,83.6268649 25.3197772,83.8874263 24.9483386,84.1369 C24.577593,83.8874263 24.1479439,83.6268649 23.6455316,83.3649175 C22.4161807,82.716286 20.9581456,82.1501193 19.3102333,81.6795842 C17.3248386,81.1141105 15.0373035,80.6851544 12.5155404,80.4003386 C11.2037246,80.2555053 10.0277333,79.9734614 9.02498772,79.5687596 C8.10678596,79.200786 7.3313386,78.724014 6.72012807,78.1550754 C6.14703158,77.618707 5.71045263,76.988093 5.41662807,76.2826368 C5.10963684,75.5356018 4.95232982,74.6749175 4.95232982,73.7262246 L4.95232982,43.1067947 L44.9464263,43.1067947 L44.9464263,73.7262246 Z M0.000277192982,9.68078596 C0.000277192982,9.68078596 2.55461053,11.9066456 2.55461053,15.6556807 L2.55461053,73.7262246 C2.55461053,78.8244965 6.07149649,82.0898298 12.2494351,82.7862772 C22.7287158,83.9608825 24.9483386,87.3072947 24.9483386,87.3072947 C24.9483386,87.3072947 27.1707333,83.9608825 37.650014,82.7862772 C43.8251807,82.0898298 47.3420667,78.8244965 47.3420667,73.7262246 L47.3420667,15.6556807 C47.3420667,11.9066456 49.8991719,9.68078596 49.8991719,9.68078596 L0.000277192982,9.68078596 Z" id="Fill-3" stroke="#FFFFFF" fill="#4D4D4F" mask="url(#mask-2)"></path>
                    </g>
                    <path d="M31.3337561,22.9346991 L23.8557825,22.9346991 C21.5093439,22.9346991 21.4712298,22.0809447 21.4109404,21.7199009 C21.3430281,21.2957956 21.5273614,20.7511114 21.8835544,20.331164 C22.1815368,19.9819009 22.5495105,19.7705412 22.8689754,19.7705412 L31.0863614,19.7705412 C31.6878702,19.7705412 32.1729579,19.2868395 32.1729579,18.6881026 C32.1729579,18.0886728 31.6878702,17.6035851 31.0863614,17.6035851 L22.1822298,17.6035851 L22.1565895,17.6035851 C21.9840368,17.607743 21.0852386,17.6756553 20.1892123,18.5716816 C19.9875544,18.7726465 19.7221421,19.1011202 19.3500105,19.5543307 C18.4304228,20.6838921 16.8892298,22.5722693 15.5635544,23.3927605 C15.2059754,23.6131289 14.6037737,24.0109009 14.1491772,24.4038219 C13.0452561,25.2776728 12.2767386,26.5014798 12.1131947,27.954664 L37.7036509,27.954664 C37.3661684,24.9582079 34.4521772,22.9346991 31.3337561,22.9346991 M12.1131947,30.7459974 L37.7036509,30.7459974 C37.3661684,33.7424535 34.4521772,35.7638833 31.3337561,35.7638833 L18.4803175,35.7638833 C15.3639754,35.7638833 12.4527561,33.7424535 12.1131947,30.7459974" id="Fill-6" fill="#FEFEFE"></path>
                    <path d="M25.7844912,78.8588684 C25.7844912,78.8588684 25.5246228,72.4792719 25.5246228,71.845193 C25.5246228,71.2062632 26.0679211,70.9900526 26.7158596,71.1258772 C27.372114,71.2707105 33.4634298,72.4792719 33.4634298,72.4792719 C33.4634298,72.4792719 32.9984386,71.1896316 32.6713509,70.2326228 C32.3505,69.2742281 32.7725263,69.1044474 32.9984386,68.9090263 L39.8049123,63.1378684 L38.7273246,62.6188246 C38.0752281,62.3229211 38.1798684,61.7837807 38.2803509,61.4296667 L39.461193,57.3452281 C39.461193,57.3452281 36.6255088,57.9730702 35.9602456,58.0707807 C35.4349649,58.1518596 35.2520175,57.9113947 35.0877807,57.5545088 L34.2361053,55.571886 L30.6783333,59.4061579 C30.0089123,60.0007368 29.3616667,59.5454474 29.4836316,58.847614 C29.5972807,58.2135351 31.2639035,50.6766579 31.2639035,50.6766579 C31.2639035,50.6766579 29.4233421,51.7542456 28.8100526,52.1111316 C28.204386,52.4659386 27.8779912,52.409114 27.5550614,51.8353246 C27.2293596,51.2532193 24.9480614,46.7779386 24.9480614,46.7779386 C24.9480614,46.7779386 22.6702281,51.2532193 22.3459123,51.8353246 C22.0202105,52.409114 21.6972807,52.4659386 21.0867632,52.1111316 C20.4762456,51.7542456 18.6329123,50.6766579 18.6329123,50.6766579 C18.6329123,50.6766579 20.3071579,58.2135351 20.4180351,58.847614 C20.54,59.5454474 19.8899825,60.0007368 19.2184825,59.4061579 L15.6634825,55.571886 L14.8125,57.5545088 C14.6496491,57.9113947 14.4667018,58.1518596 13.9365702,58.0707807 C13.2740789,57.9730702 10.3205877,57.3452281 10.3205877,57.3452281 L11.6192368,61.4296667 C11.7211053,61.7837807 11.8215877,62.3229211 11.1715702,62.6188246 L10.0967544,63.1378684 L16.9011491,68.9090263 C17.1277544,69.1044474 17.5525526,69.2742281 17.2268509,70.2326228 C16.9011491,71.1896316 16.4368509,72.4792719 16.4368509,72.4792719 C16.4368509,72.4792719 22.5316316,71.2707105 23.1802632,71.1258772 C23.8323596,70.9900526 24.3770439,71.2062632 24.3770439,71.845193 C24.3770439,72.4792719 24.1144035,78.8588684 24.1144035,78.8588684 L25.7844912,78.8588684 Z" id="Fill-8" fill="#EC1940"></path>
                    <path d="M65.2956482,43.6917412 C60.5459465,43.6917412 57.6312623,40.4984781 57.6312623,36.3863202 L57.6312623,23.2141096 C57.6312623,19.1026447 60.5459465,15.9093816 65.2956482,15.9093816 C70.00585,15.9093816 72.4804904,18.8628728 72.4804904,22.8551447 L72.4804904,26.0879079 L68.0502535,26.0879079 L68.0502535,22.8946447 C68.0502535,21.3382061 67.1715518,20.2599254 65.3753412,20.2599254 C63.5791307,20.2599254 62.6609289,21.3382061 62.6609289,22.8149518 L62.6609289,36.7861711 C62.6609289,38.2629167 63.5791307,39.3405044 65.3753412,39.3405044 C67.1715518,39.3405044 68.0502535,38.2629167 68.0502535,36.7057851 L68.0502535,33.5132149 L72.4804904,33.5132149 L72.4804904,36.7459781 C72.4804904,40.737557 70.00585,43.6917412 65.2956482,43.6917412" id="Fill-10" fill="#FEFEFE"></path>
                    <path d="M82.4669219,43.6917412 C78.1558781,43.6917412 74.9626149,40.937136 74.9626149,36.945557 L74.9626149,16.5081184 L79.9922816,16.5081184 L79.9922816,36.945557 C79.9922816,38.5026886 80.8702904,39.3806974 82.4669219,39.3806974 C84.1037465,39.3806974 84.9817553,38.5026886 84.9817553,36.945557 L84.9817553,16.5081184 L89.812536,16.5081184 L89.812536,36.945557 C89.812536,40.937136 86.7779658,43.6917412 82.4669219,43.6917412" id="Fill-12" fill="#FEFEFE"></path>
                    <path d="M102.184421,22.4955561 C102.184421,21.2980825 101.66607,20.5794596 100.429096,20.5794596 L97.7139912,20.5794596 L97.7139912,28.4032316 L100.228825,28.4032316 C101.505991,28.4032316 102.184421,27.7248018 102.184421,26.2875561 L102.184421,22.4955561 Z M105.058912,43.2524596 C103.103316,43.2524596 102.343807,41.6558281 102.343807,39.3405737 L102.343807,34.3511 C102.343807,33.1134333 101.706263,32.0760386 100.308518,32.0760386 L97.7139912,32.0760386 L97.7139912,43.0930737 L92.7640175,43.0930737 L92.7640175,16.5081877 L100.947447,16.5081877 C104.580061,16.5081877 107.015202,18.5836702 107.015202,22.2959772 L107.015202,26.0477842 C107.015202,28.0442667 106.097,29.5210123 104.020825,30.1599421 C106.097,30.718486 107.094895,32.4745035 107.094895,34.1910211 L107.094895,39.0613018 C107.094895,40.2982754 107.45386,41.1367842 108.053289,41.775714 L108.053289,43.2524596 L105.058912,43.2524596 Z" id="Fill-14" fill="#FEFEFE"></path>
                    <polygon id="Fill-16" fill="#FEFEFE" points="110.335142 43.0927965 110.335142 16.5079105 115.285116 16.5079105 115.285116 38.7020596 122.70973 38.7020596 122.70973 43.0927965"></polygon>
                    <mask id="mask-4" fill="white">
                        <use xlink:href="#path-3"></use>
                    </mask>
                    <g id="Clip-19"></g>
                    <polygon id="Fill-18" fill="#FEFEFE" mask="url(#mask-4)" points="124.95236 43.0926579 129.902333 43.0926579 129.902333 16.5077719 124.95236 16.5077719"></polygon>
                    <polygon id="Fill-20" fill="#FEFEFE" mask="url(#mask-4)" points="144.442838 43.0927965 139.293978 31.7562965 137.417382 27.5249456 137.417382 43.0927965 132.867259 43.0927965 132.867259 16.5079105 137.13811 16.5079105 142.04789 28.0439895 143.803908 32.2753404 143.803908 16.5079105 148.275031 16.5079105 148.275031 43.0927965"></polygon>
                    <path d="M163.451139,43.0927965 L162.772709,40.9771211 C161.894007,42.7331386 160.058296,43.6915333 157.902428,43.6915333 C153.510998,43.6915333 151.076551,40.5779632 151.076551,36.7457702 L151.076551,22.8549368 C151.076551,19.2223228 153.871349,15.9493667 158.661244,15.9493667 C163.451139,15.9493667 166.005472,19.1024368 166.005472,22.8549368 L166.005472,25.6095421 L161.25577,25.6095421 L161.25577,22.6553579 C161.25577,21.3781912 160.457454,20.2604105 158.700744,20.2604105 C156.944033,20.2604105 156.105525,21.4176912 156.105525,22.7350509 L156.105525,36.9058491 C156.105525,38.2232088 157.024419,39.3804895 158.740937,39.3804895 C160.496954,39.3804895 161.374963,38.2232088 161.374963,36.9058491 L161.374963,33.1935421 L158.780437,33.1935421 L158.780437,29.6011211 L166.164858,29.6011211 L166.164858,43.0927965 L163.451139,43.0927965 Z" id="Fill-21" fill="#FEFEFE" mask="url(#mask-4)"></path>
                    <path d="M65.2956482,77.6414368 C60.5459465,77.6414368 57.6312623,74.4474807 57.6312623,70.3367088 L57.6312623,57.1631123 C57.6312623,53.0516474 60.5459465,49.8583842 65.2956482,49.8583842 C70.00585,49.8583842 72.4804904,52.8118754 72.4804904,56.8048404 L72.4804904,60.0382965 L68.0502535,60.0382965 L68.0502535,56.8436474 C68.0502535,55.2872088 67.1715518,54.2096211 65.3753412,54.2096211 C63.5791307,54.2096211 62.6609289,55.2872088 62.6609289,56.7639544 L62.6609289,70.7344807 C62.6609289,72.2126123 63.5791307,73.2902 65.3753412,73.2902 C67.1715518,73.2902 68.0502535,72.2126123 68.0502535,70.6561737 L68.0502535,67.4622175 L72.4804904,67.4622175 L72.4804904,70.6956737 C72.4804904,74.6865596 70.00585,77.6414368 65.2956482,77.6414368" id="Fill-22" fill="#FEFEFE" mask="url(#mask-4)"></path>
                    <path d="M81.8324965,57.6423789 L80.036286,67.9019842 L83.4291281,67.9019842 L81.8324965,57.6423789 Z M84.9460667,77.0417298 L84.0680579,71.8131772 L79.3578561,71.8131772 L78.3994614,77.0417298 L73.7689526,77.0417298 L79.1180842,50.4568439 L84.6661018,50.4568439 L89.9750404,77.0417298 L84.9460667,77.0417298 Z" id="Fill-23" fill="#FEFEFE" mask="url(#mask-4)"></path>
                    <polygon id="Fill-24" fill="#FEFEFE" mask="url(#mask-4)" points="103.630675 77.0418684 98.4811228 65.7053684 96.6052193 61.4740175 96.6052193 77.0418684 92.0550965 77.0418684 92.0550965 50.4569825 96.3252544 50.4569825 101.235728 61.9937544 102.991746 66.2251053 102.991746 50.4569825 107.462868 50.4569825 107.462868 77.0418684"></polygon>
                    <path d="M117.624971,57.6423789 L115.828068,67.9019842 L119.22091,67.9019842 L117.624971,57.6423789 Z M120.737848,77.0417298 L119.859839,71.8131772 L115.149638,71.8131772 L114.191243,77.0417298 L109.560734,77.0417298 L114.909866,50.4568439 L120.458576,50.4568439 L125.767515,77.0417298 L120.737848,77.0417298 Z" id="Fill-25" fill="#FEFEFE" mask="url(#mask-4)"></path>
                    <path d="M137.801987,57.6829877 C137.801987,55.7661982 137.003671,54.7281105 135.167268,54.7281105 L132.812513,54.7281105 L132.812513,72.7712947 L135.167268,72.7712947 C137.003671,72.7712947 137.801987,71.733207 137.801987,69.8573035 L137.801987,57.6829877 Z M135.526925,77.0421456 L127.862539,77.0421456 L127.862539,50.4565667 L135.526925,50.4565667 C140.196934,50.4565667 142.791461,53.4509439 142.791461,57.6421018 L142.791461,70.0970754 C142.791461,74.3284263 140.196934,77.0421456 135.526925,77.0421456 L135.526925,77.0421456 Z" id="Fill-26" fill="#FEFEFE" mask="url(#mask-4)"></path>
                    <path d="M152.052132,57.6423789 L150.255228,67.9019842 L153.64807,67.9019842 L152.052132,57.6423789 Z M155.165009,77.0417298 L154.287,71.8131772 L149.576798,71.8131772 L148.618404,77.0417298 L143.987895,77.0417298 L149.337026,50.4568439 L154.885737,50.4568439 L160.194675,77.0417298 L155.165009,77.0417298 Z" id="Fill-27" fill="#FEFEFE" mask="url(#mask-4)"></path>
                </g>
            </g>
        </g>
    </g>
</svg>