
<svg width="110px" height="162px" viewBox="0 0 110 162" version="1.1" xmlns="http://www.w3.org/2000/svg" xmlns:xlink="http://www.w3.org/1999/xlink">
    <g id="Group-3" transform="translate(0.000000, 0.683985)">
        <path d="M52.9141353,158.290579 C52.7429323,158.074714 51.5643609,156.727421 48.4190226,155.159301 C46.395188,154.151932 43.9702256,153.263662 41.2144361,152.503586 C37.754812,151.554113 33.7683459,150.82712 29.3559398,150.323436 C26.1006015,149.959526 23.1314286,149.246594 20.5360902,148.194564 C17.8886466,147.134263 15.6059398,145.711707 13.7483459,143.975692 C11.8543609,142.207421 10.3978947,140.111632 9.42360902,137.752008 C8.45180451,135.391556 7.95390977,132.767271 7.95390977,129.938699 L7.95390977,14.4271203 C7.95390977,11.8408797 7.25338346,9.37373684 5.85894737,7.08937594 C4.82924812,5.38727068 0,0.142834586 0,0.142834586 L109.754361,0.158548872 C109.754361,0.158548872 104.951579,5.38727068 103.911955,7.08937594 C102.529098,9.37373684 101.816992,11.8408797 101.816992,14.4271203 L101.816992,129.938699 C101.816992,132.767271 101.325714,135.391556 100.351429,137.752008 C99.3779699,140.111632 97.9215038,142.207421 96.0233835,143.975692 C94.1699248,145.711707 91.8880451,147.134263 89.2372932,148.194564 C86.6403008,149.246594 83.6760902,149.959526 80.4199248,150.323436 C76.0124812,150.82712 72.0227068,151.554113 68.5572932,152.503586 C65.8015038,153.263662 63.3773684,154.151932 61.3584962,155.159301 C58.1891729,156.735692 57.0205263,158.099526 56.8609023,158.293887 L54.8254887,160.45088 L52.9141353,158.290579" id="Fill-1" fill="#FEFEFE" mask="url(#mask-2)"></path>
    </g>
    <path d="M94.6556617,130.622436 C94.6556617,132.507323 94.3446842,134.221835 93.7276917,135.707248 C93.1537068,137.109955 92.2745338,138.363789 91.1364887,139.430707 C89.9281429,140.563789 88.3806992,141.512436 86.5553609,142.243564 C84.5555113,143.047474 82.2231805,143.609053 79.6121278,143.897699 C74.5976165,144.463414 70.0520526,145.317774 66.0928797,146.442586 C62.8201729,147.378827 59.9171654,148.503639 57.4731805,149.795519 C56.4732556,150.316571 55.6147594,150.833489 54.876188,151.329729 C54.1400977,150.833489 53.2849098,150.316571 52.285812,149.795519 C49.841,148.503639 46.9396466,147.378827 43.6611504,146.442586 C39.7127293,145.317774 35.162203,144.463414 30.1460376,143.897699 C27.535812,143.609053 25.1985188,143.047474 23.2036316,142.243564 C21.3766391,141.512436 19.8333308,140.563789 18.6167143,139.430707 C17.4786692,138.363789 16.6094211,137.109955 16.0246842,135.707248 C15.4151353,134.221835 15.1016767,132.507323 15.1016767,130.622436 L15.1016767,69.7155188 L94.6556617,69.7155188 L94.6556617,130.622436" id="Fill-4" fill="#FEFEFE"></path>
    <path d="M94.6556617,130.622436 C94.6556617,132.507323 94.3446842,134.221835 93.7276917,135.707248 C93.1537068,137.109955 92.2745338,138.363789 91.1364887,139.430707 C89.9281429,140.563789 88.3806992,141.512436 86.5553609,142.243564 C84.5555113,143.047474 82.2231805,143.609053 79.6121278,143.897699 C74.5976165,144.463414 70.0520526,145.317774 66.0928797,146.442586 C62.8201729,147.378827 59.9171654,148.503639 57.4731805,149.795519 C56.4732556,150.316571 55.6147594,150.833489 54.876188,151.329729 C54.1400977,150.833489 53.2849098,150.316571 52.285812,149.795519 C49.841,148.503639 46.9396466,147.378827 43.6611504,146.442586 C39.7127293,145.317774 35.162203,144.463414 30.1460376,143.897699 C27.535812,143.609053 25.1985188,143.047474 23.2036316,142.243564 C21.3766391,141.512436 19.8333308,140.563789 18.6167143,139.430707 C17.4786692,138.363789 16.6094211,137.109955 16.0246842,135.707248 C15.4151353,134.221835 15.1016767,132.507323 15.1016767,130.622436 L15.1016767,69.7155188 L94.6556617,69.7155188 L94.6556617,130.622436 Z M5.25130075,3.22589474 C5.25130075,3.22589474 10.3319774,7.6523609 10.3319774,15.1108571 L10.3319774,130.622436 C10.3319774,140.76394 17.3281429,147.258075 29.6175414,148.643414 C50.4621278,150.978226 54.876188,157.63612 54.876188,157.63612 C54.876188,157.63612 59.2968647,150.978226 80.1414511,148.643414 C92.4258872,147.258075 99.4212256,140.76394 99.4212256,130.622436 L99.4212256,15.1108571 C99.4212256,7.6523609 104.507692,3.22589474 104.507692,3.22589474 L5.25130075,3.22589474 L5.25130075,3.22589474 Z" id="Fill-6" fill="#4C4C4E"></path>
    <path d="M67.5780451,29.5659323 L52.7032331,29.5659323 C48.0360902,29.5659323 47.96,27.8679624 47.8392481,27.1492406 C47.7052632,26.3056316 48.0716541,25.223 48.7804511,24.3868346 C49.3726316,23.6920977 50.1054135,23.2727744 50.7406015,23.2727744 L67.0859398,23.2727744 C68.2827068,23.2727744 69.2478947,22.3100677 69.2478947,21.1190902 C69.2478947,19.9272857 68.2827068,18.9620977 67.0859398,18.9620977 L49.3742857,18.9620977 L49.3238346,18.9620977 C48.9797744,18.9703684 47.1933083,19.1051805 45.4101504,20.8875113 C45.0090226,21.286985 44.4805263,21.9403684 43.7411278,22.8426992 C41.9108271,25.0898421 38.8465414,28.8455564 36.2081955,30.478188 C35.4969173,30.9148797 34.3001504,31.7063835 33.3953383,32.4887895 C31.2011278,34.2272857 29.6710526,36.6613459 29.3443609,39.5519474 L80.2495489,39.5519474 C79.5779699,33.5912707 73.7818797,29.5659323 67.5780451,29.5659323 M29.3443609,45.1040526 L80.2495489,45.1040526 C79.5779699,51.0647293 73.7818797,55.0851053 67.5780451,55.0851053 L42.0117293,55.0851053 C35.8120301,55.0851053 30.0209023,51.0647293 29.3443609,45.1040526" id="Fill-8" fill="#FEFEFE"></path>
    <path d="M56.5402481,140.807361 C56.5402481,140.807361 56.0225038,128.118489 56.0225038,126.856383 C56.0225038,125.58518 57.1043083,125.155105 58.3920526,125.426383 C59.6971654,125.713376 71.8145338,128.118489 71.8145338,128.118489 C71.8145338,128.118489 70.8898722,125.552098 70.239797,123.648188 C69.6004737,121.742624 70.4399474,121.40518 70.8898722,121.016459 L84.429797,109.536759 L82.2843835,108.503752 C80.9883684,107.915707 81.1967895,106.844654 81.3961128,106.138338 L83.745812,98.0140526 C83.745812,98.0140526 78.1035564,99.2637519 76.7802481,99.4564586 C75.7356617,99.6185639 75.373406,99.1405188 75.0450602,98.4300677 L73.3512256,94.485782 L66.2740075,102.112173 C64.9424286,103.296534 63.6555113,102.390895 63.8978421,101.003075 C64.1236316,99.741797 67.4401729,84.7487143 67.4401729,84.7487143 C67.4401729,84.7487143 63.7779173,86.8924737 62.5579925,87.6029248 C61.3529549,88.3084135 60.7053609,88.1951053 60.0610752,87.0537519 C59.4143083,85.8958571 54.876188,76.9933008 54.876188,76.9933008 C54.876188,76.9933008 50.3446842,85.8958571 49.7003985,87.0537519 C49.0519774,88.1951053 48.4085188,88.3084135 47.1952105,87.6029248 C45.9819023,86.8924737 42.3138571,84.7487143 42.3138571,84.7487143 C42.3138571,84.7487143 45.6444586,99.741797 45.8652857,101.003075 C46.1076165,102.390895 44.8157368,103.296534 43.4791955,102.112173 L36.4077669,94.485782 L34.7147594,98.4300677 C34.3905489,99.1405188 34.0274662,99.6185639 32.9729549,99.4564586 C31.6554361,99.2637519 25.7799474,98.0140526 25.7799474,98.0140526 L28.3628797,106.138338 C28.5663383,106.844654 28.7648346,107.915707 27.4729549,108.503752 L25.334985,109.536759 L38.8699474,121.016459 C39.3198722,121.40518 40.1659624,121.742624 39.5175414,123.648188 C38.8699474,125.552098 37.9461128,128.118489 37.9461128,128.118489 C37.9461128,128.118489 50.0684436,125.713376 51.3611504,125.426383 C52.6563383,125.155105 53.7406241,125.58518 53.7406241,126.856383 C53.7406241,128.118489 53.2187444,140.807361 53.2187444,140.807361 L56.5402481,140.807361" id="Fill-10" fill="#EC1940"></path>
</svg>
