<?xml version="1.0" encoding="UTF-8"?>
<svg width="121px" height="187px" viewBox="0 0 121 187" version="1.1" xmlns="http://www.w3.org/2000/svg" xmlns:xlink="http://www.w3.org/1999/xlink">
    <g>
        <path d="M108.4473,154.1074 C108.4473,156.3864 108.0713,158.4594 107.3253,160.2554 C106.6313,161.9514 105.5683,163.4674 104.1923,164.7574 C102.7313,166.1274 100.8603,167.2744 98.6533,168.1584 C96.2353,169.1304 93.4153,169.8094 90.2583,170.1584 C84.1953,170.8424 78.6993,171.8754 73.9123,173.2354 C69.9553,174.3674 66.4453,175.7274 63.4903,177.2894 C62.2813,177.9194 61.2433,178.5444 60.3503,179.1444 C59.4603,178.5444 58.4263,177.9194 57.2183,177.2894 C54.2623,175.7274 50.7543,174.3674 46.7903,173.2354 C42.0163,171.8754 36.5143,170.8424 30.4493,170.1584 C27.2933,169.8094 24.4673,169.1304 22.0553,168.1584 C19.8463,167.2744 17.9803,166.1274 16.5093,164.7574 C15.1333,163.4674 14.0823,161.9514 13.3753,160.2554 C12.6383,158.4594 12.2593,156.3864 12.2593,154.1074 L12.2593,80.4654 L108.4473,80.4654 L108.4473,154.1074" id="Fill-1" fill="#FEFEFE"></path>
        <path d="M108.4473,154.1074 C108.4473,156.3864 108.0713,158.4594 107.3253,160.2554 C106.6313,161.9514 105.5683,163.4674 104.1923,164.7574 C102.7313,166.1274 100.8603,167.2744 98.6533,168.1584 C96.2353,169.1304 93.4153,169.8094 90.2583,170.1584 C84.1953,170.8424 78.6993,171.8754 73.9123,173.2354 C69.9553,174.3674 66.4453,175.7274 63.4903,177.2894 C62.2813,177.9194 61.2433,178.5444 60.3503,179.1444 C59.4603,178.5444 58.4263,177.9194 57.2183,177.2894 C54.2623,175.7274 50.7543,174.3674 46.7903,173.2354 C42.0163,171.8754 36.5143,170.8424 30.4493,170.1584 C27.2933,169.8094 24.4673,169.1304 22.0553,168.1584 C19.8463,167.2744 17.9803,166.1274 16.5093,164.7574 C15.1333,163.4674 14.0823,161.9514 13.3753,160.2554 C12.6383,158.4594 12.2593,156.3864 12.2593,154.1074 L12.2593,80.4654 L108.4473,80.4654 L108.4473,154.1074 Z M0.3493,0.0734 C0.3493,0.0734 6.4923,5.4254 6.4923,14.4434 L6.4923,154.1074 C6.4923,166.3694 14.9513,174.2214 29.8103,175.8964 C55.0133,178.7194 60.3503,186.7694 60.3503,186.7694 C60.3503,186.7694 65.6953,178.7194 90.8983,175.8964 C105.7513,174.2214 114.2093,166.3694 114.2093,154.1074 L114.2093,14.4434 C114.2093,5.4254 120.3593,0.0734 120.3593,0.0734 L0.3493,0.0734 L0.3493,0.0734 Z" id="Fill-3" fill="#4C4C4E"></path>
        <path d="M75.708,31.9209 L57.723,31.9209 C52.08,31.9209 51.988,29.8679 51.842,28.9989 C51.68,27.9789 52.123,26.6699 52.98,25.6589 C53.696,24.8189 54.582,24.3119 55.35,24.3119 L75.113,24.3119 C76.56,24.3119 77.727,23.1479 77.727,21.7079 C77.727,20.2669 76.56,19.0999 75.113,19.0999 L53.698,19.0999 L53.637,19.0999 C53.221,19.1099 51.061,19.2729 48.905,21.4279 C48.42,21.9109 47.781,22.7009 46.887,23.7919 C44.674,26.5089 40.969,31.0499 37.779,33.0239 C36.919,33.5519 35.472,34.5089 34.378,35.4549 C31.725,37.5569 29.875,40.4999 29.48,43.9949 L91.029,43.9949 C90.217,36.7879 83.209,31.9209 75.708,31.9209 M29.48,50.7079 L91.029,50.7079 C90.217,57.9149 83.209,62.7759 75.708,62.7759 L44.796,62.7759 C37.3,62.7759 30.298,57.9149 29.48,50.7079" id="Fill-5" fill="#FEFEFE"></path>
        <path d="M62.3623,166.4219 C62.3623,166.4219 61.7363,151.0799 61.7363,149.5539 C61.7363,148.0169 63.0443,147.4969 64.6013,147.8249 C66.1793,148.1719 80.8303,151.0799 80.8303,151.0799 C80.8303,151.0799 79.7123,147.9769 78.9263,145.6749 C78.1533,143.3709 79.1683,142.9629 79.7123,142.4929 L96.0833,128.6129 L93.4893,127.3639 C91.9223,126.6529 92.1743,125.3579 92.4153,124.5039 L95.2563,114.6809 C95.2563,114.6809 88.4343,116.1919 86.8343,116.4249 C85.5713,116.6209 85.1333,116.0429 84.7363,115.1839 L82.6883,110.4149 L74.1313,119.6359 C72.5213,121.0679 70.9653,119.9729 71.2583,118.2949 C71.5313,116.7699 75.5413,98.6419 75.5413,98.6419 C75.5413,98.6419 71.1133,101.2339 69.6383,102.0929 C68.1813,102.9459 67.3983,102.8089 66.6193,101.4289 C65.8373,100.0289 60.3503,89.2649 60.3503,89.2649 C60.3503,89.2649 54.8713,100.0289 54.0923,101.4289 C53.3083,102.8089 52.5303,102.9459 51.0633,102.0929 C49.5963,101.2339 45.1613,98.6419 45.1613,98.6419 C45.1613,98.6419 49.1883,116.7699 49.4553,118.2949 C49.7483,119.9729 48.1863,121.0679 46.5703,119.6359 L38.0203,110.4149 L35.9733,115.1839 C35.5813,116.0429 35.1423,116.6209 33.8673,116.4249 C32.2743,116.1919 25.1703,114.6809 25.1703,114.6809 L28.2933,124.5039 C28.5393,125.3579 28.7793,126.6529 27.2173,127.3639 L24.6323,128.6129 L40.9973,142.4929 C41.5413,142.9629 42.5643,143.3709 41.7803,145.6749 C40.9973,147.9769 39.8803,151.0799 39.8803,151.0799 C39.8803,151.0799 54.5373,148.1719 56.1003,147.8249 C57.6663,147.4969 58.9773,148.0169 58.9773,149.5539 C58.9773,151.0799 58.3463,166.4219 58.3463,166.4219 L62.3623,166.4219" id="Fill-7" fill="#EC1940"></path>
    </g>
</svg>