
<svg width="38px" height="60px" viewBox="0 0 38 60" version="1.1" xmlns="http://www.w3.org/2000/svg" xmlns:xlink="http://www.w3.org/1999/xlink">
    <defs>
        <polygon id="path-1" points="0 0.0529935951 37.9151429 0.0529935951 37.9151429 59.4262517 0 59.4262517"></polygon>
    </defs>
    <g id="Group-3" transform="translate(0.000000, 0.253328)">
        <mask id="mask-2" fill="white">
            <use xlink:href="#path-1"></use>
        </mask>
        <g id="Clip-2"></g>
        <path d="M18.2794286,58.6261404 C18.2202857,58.5461905 17.8131429,58.047193 16.7265714,57.4664077 C16.0274286,57.0933083 15.1897143,56.7643191 14.2377143,56.4828098 C13.0425714,56.1311529 11.6654286,55.8618964 10.1411429,55.6753467 C9.01657143,55.5405653 7.99085714,55.2765163 7.09428571,54.8868755 C6.17971429,54.4941715 5.39114286,53.9672988 4.74942857,53.3243303 C4.09514286,52.6694152 3.592,51.8931969 3.25542857,51.019262 C2.91971429,50.1450209 2.74771429,49.1730632 2.74771429,48.1254442 L2.74771429,5.34337789 C2.74771429,4.385511 2.50571429,3.47175439 2.024,2.62569479 C1.66828571,1.99528544 0,0.0529016987 0,0.0529016987 L37.9151429,0.0587218045 C37.9151429,0.0587218045 36.256,1.99528544 35.8968571,2.62569479 C35.4191429,3.47175439 35.1731429,4.385511 35.1731429,5.34337789 L35.1731429,48.1254442 C35.1731429,49.1730632 35.0034286,50.1450209 34.6668571,51.019262 C34.3305714,51.8931969 33.8274286,52.6694152 33.1717143,53.3243303 C32.5314286,53.9672988 31.7431429,54.4941715 30.8274286,54.8868755 C29.9302857,55.2765163 28.9062857,55.5405653 27.7814286,55.6753467 C26.2588571,55.8618964 24.8805714,56.1311529 23.6834286,56.4828098 C22.7314286,56.7643191 21.894,57.0933083 21.1965714,57.4664077 C20.1017143,58.0502562 19.698,58.5553801 19.6428571,58.6273656 L18.9397143,59.4262517 L18.2794286,58.6261404" id="Fill-1" fill="#FEFEFE" mask="url(#mask-2)"></path>
    </g>
    <path d="M32.6992286,48.37868 C32.6992286,49.0767864 32.5918,49.7117906 32.3786571,50.2619437 C32.1803714,50.7814648 31.8766571,51.245848 31.4835143,51.6410025 C31.0660857,52.0606628 30.5315143,52.4120134 29.9009429,52.6828014 C29.2100857,52.9805458 28.4043714,53.188538 27.5023714,53.2954442 C25.7700857,53.504968 24.1998,53.8213979 22.8320857,54.237995 C21.7015143,54.5847508 20.6986571,55.0013478 19.8543714,55.4798218 C19.5089429,55.6728042 19.2123714,55.8642551 18.9572286,56.0480479 C18.7029429,55.8642551 18.4075143,55.6728042 18.0623714,55.4798218 C17.2178,55.0013478 16.2155143,54.5847508 15.0829429,54.237995 C13.7189429,53.8213979 12.1469429,53.504968 10.4140857,53.2954442 C9.51237143,53.188538 8.70494286,52.9805458 8.0158,52.6828014 C7.38465714,52.4120134 6.85151429,52.0606628 6.43122857,51.6410025 C6.03808571,51.245848 5.7378,50.7814648 5.5358,50.2619437 C5.32522857,49.7117906 5.21694286,49.0767864 5.21694286,48.37868 L5.21694286,25.8205625 L32.6992286,25.8205625 L32.6992286,48.37868" id="Fill-4" fill="#FEFEFE"></path>
    <path d="M32.6992286,48.37868 C32.6992286,49.0767864 32.5918,49.7117906 32.3786571,50.2619437 C32.1803714,50.7814648 31.8766571,51.245848 31.4835143,51.6410025 C31.0660857,52.0606628 30.5315143,52.4120134 29.9009429,52.6828014 C29.2100857,52.9805458 28.4043714,53.188538 27.5023714,53.2954442 C25.7700857,53.504968 24.1998,53.8213979 22.8320857,54.237995 C21.7015143,54.5847508 20.6986571,55.0013478 19.8543714,55.4798218 C19.5089429,55.6728042 19.2123714,55.8642551 18.9572286,56.0480479 C18.7029429,55.8642551 18.4075143,55.6728042 18.0623714,55.4798218 C17.2178,55.0013478 16.2155143,54.5847508 15.0829429,54.237995 C13.7189429,53.8213979 12.1469429,53.504968 10.4140857,53.2954442 C9.51237143,53.188538 8.70494286,52.9805458 8.0158,52.6828014 C7.38465714,52.4120134 6.85151429,52.0606628 6.43122857,51.6410025 C6.03808571,51.245848 5.7378,50.7814648 5.5358,50.2619437 C5.32522857,49.7117906 5.21694286,49.0767864 5.21694286,48.37868 L5.21694286,25.8205625 L32.6992286,25.8205625 L32.6992286,48.37868 Z M1.81408571,1.19477583 C1.81408571,1.19477583 3.56922857,2.83420774 3.56922857,5.59661376 L3.56922857,48.37868 C3.56922857,52.1347925 5.98608571,54.5400278 10.2315143,55.0531161 C17.4323714,55.9178613 18.9572286,58.3837483 18.9572286,58.3837483 C18.9572286,58.3837483 20.4843714,55.9178613 27.6852286,55.0531161 C31.9289429,54.5400278 34.3455143,52.1347925 34.3455143,48.37868 L34.3455143,5.59661376 C34.3455143,2.83420774 36.1026571,1.19477583 36.1026571,1.19477583 L1.81408571,1.19477583 L1.81408571,1.19477583 Z" id="Fill-6" fill="#4C4C4E"></path>
    <path d="M23.3451429,10.9503453 L18.2065714,10.9503453 C16.5942857,10.9503453 16.568,10.3214676 16.5262857,10.0552743 C16.48,9.74282651 16.6065714,9.34185185 16.8514286,9.03216096 C17.056,8.77485102 17.3091429,8.61954609 17.5285714,8.61954609 L23.1751429,8.61954609 C23.5885714,8.61954609 23.922,8.26298803 23.922,7.82188527 C23.922,7.38047619 23.5885714,7.02299916 23.1751429,7.02299916 L17.0565714,7.02299916 L17.0391429,7.02299916 C16.9202857,7.02606238 16.3031429,7.07599276 15.6871429,7.73611529 C15.5485714,7.8840685 15.366,8.12606238 15.1105714,8.46025898 C14.4782857,9.29253411 13.4197143,10.6835394 12.5082857,11.2882178 C12.2625714,11.4499554 11.8491429,11.743105 11.5365714,12.032885 C10.7785714,12.6767725 10.25,13.5782762 10.1371429,14.6488694 L27.7225714,14.6488694 C27.4905714,12.4412114 25.4882857,10.9503453 23.3451429,10.9503453 M10.1371429,16.7052047 L27.7225714,16.7052047 C27.4905714,18.9128627 25.4882857,20.4018908 23.3451429,20.4018908 L14.5131429,20.4018908 C12.3714286,20.4018908 10.3708571,18.9128627 10.1371429,16.7052047" id="Fill-8" fill="#FEFEFE"></path>
    <path d="M19.5320857,52.1508744 C19.5320857,52.1508744 19.3532286,47.4512921 19.3532286,46.9838457 C19.3532286,46.5130298 19.7269429,46.3537427 20.1718,46.4542161 C20.6226571,46.5605096 24.8086571,47.4512921 24.8086571,47.4512921 C24.8086571,47.4512921 24.4892286,46.5007769 24.2646571,45.7956252 C24.0438,45.0898608 24.3338,44.9648816 24.4892286,44.8209106 L29.1666571,40.5691701 L28.4255143,40.1865748 C27.9778,39.9687803 28.0498,39.5720941 28.1186571,39.3104957 L28.9303714,36.301501 C28.9303714,36.301501 26.9812286,36.7643525 26.5240857,36.8357254 C26.1632286,36.8957644 26.0380857,36.7187107 25.9246571,36.4555806 L25.3395143,34.9947341 L22.8946571,37.8193233 C22.4346571,38.2579755 21.9900857,37.9225536 22.0738,37.4085464 C22.1518,36.9414063 23.2975143,31.3884127 23.2975143,31.3884127 C23.2975143,31.3884127 22.0323714,32.1823977 21.6109429,32.4455277 C21.1946571,32.7068198 20.9709429,32.6648538 20.7483714,32.2421303 C20.5249429,31.8132804 18.9572286,28.5160373 18.9572286,28.5160373 C18.9572286,28.5160373 17.3918,31.8132804 17.1692286,32.2421303 C16.9452286,32.6648538 16.7229429,32.7068198 16.3038,32.4455277 C15.8846571,32.1823977 14.6175143,31.3884127 14.6175143,31.3884127 C14.6175143,31.3884127 15.7680857,36.9414063 15.8443714,37.4085464 C15.9280857,37.9225536 15.4818,38.2579755 15.0200857,37.8193233 L12.5772286,34.9947341 L11.9923714,36.4555806 C11.8803714,36.7187107 11.7549429,36.8957644 11.3906571,36.8357254 C10.9355143,36.7643525 8.9058,36.301501 8.9058,36.301501 L9.79808571,39.3104957 C9.86837143,39.5720941 9.93694286,39.9687803 9.49065714,40.1865748 L8.75208571,40.5691701 L13.4278,44.8209106 C13.5832286,44.9648816 13.8755143,45.0898608 13.6515143,45.7956252 C13.4278,46.5007769 13.1086571,47.4512921 13.1086571,47.4512921 C13.1086571,47.4512921 17.2963714,46.5605096 17.7429429,46.4542161 C18.1903714,46.3537427 18.5649429,46.5130298 18.5649429,46.9838457 C18.5649429,47.4512921 18.3846571,52.1508744 18.3846571,52.1508744 L19.5320857,52.1508744" id="Fill-10" fill="#EC1940"></path>
</svg>